<?xml version="1.0" encoding="UTF-8"?>
<svg id="Layer_1" data-name="Layer 1" xmlns="http://www.w3.org/2000/svg" viewBox="0 0 197.82 211.37">
  <defs>
    <style>
      .cls-1 {
        fill: #fe539e;
      }

      .cls-1, .cls-2 {
        stroke-width: 0px;
      }

      .cls-2 {
        fill: #fff;
      }
    </style>
  </defs>
  <path class="cls-1" d="M196,110.32l-20.63-26.53-4.79-15.12c-1.24-6.61-3.26-12.94-5.99-18.91l-.05-.17h-.02C151.08,20.37,120.99,0,86,0,38.5,0,0,37.51,0,83.79c0,16.95,5.18,32.72,14.07,45.91h-.01s.06.08.09.12c2.46,3.63,5.18,7.08,8.17,10.29,19.04,24.98,22.1,37.15,22.1,37.15v34.11h81.68v-13.47c0-8.42,8.84-13.89,8.84-13.89l29.05-8.84c8.84-3.37,11.37-14.74,11.37-14.74v-31.58l18.95-7.16c6.74-4.21,1.68-11.37,1.68-11.37Z"/>
  <circle class="cls-2" cx="84.38" cy="81.89" r="48.79"/>
  <path class="cls-1" d="M107.12,72.42h-13.26v-13.26c0-5.23-4.24-9.47-9.47-9.47s-9.47,4.24-9.47,9.47v13.26h-13.26c-5.23,0-9.47,4.24-9.47,9.47h0c0,5.23,4.24,9.47,9.47,9.47h13.26v13.26c0,5.23,4.24,9.47,9.47,9.47s9.47-4.24,9.47-9.47v-13.26h13.26c5.23,0,9.47-4.24,9.47-9.47h0c0-5.23-4.24-9.47-9.47-9.47Z"/>
</svg>